<?xml version="1.0" encoding="UTF-8" standalone="no"?>
<svg
   xmlns:dc="http://purl.org/dc/elements/1.1/"
   xmlns:cc="http://creativecommons.org/ns#"
   xmlns:rdf="http://www.w3.org/1999/02/22-rdf-syntax-ns#"
   xmlns:svg="http://www.w3.org/2000/svg"
   xmlns="http://www.w3.org/2000/svg"
   xmlns:sodipodi="http://sodipodi.sourceforge.net/DTD/sodipodi-0.dtd"
   xmlns:inkscape="http://www.inkscape.org/namespaces/inkscape"
   height="50"
   width="50"
   version="1.1"
   id="svg4513"
   sodipodi:docname="icon_trash.svg"
   inkscape:version="0.92.1 r15371">
  <metadata
     id="metadata4519">
    <rdf:RDF>
      <cc:Work
         rdf:about="">
        <dc:format>image/svg+xml</dc:format>
        <dc:type
           rdf:resource="http://purl.org/dc/dcmitype/StillImage" />
        <dc:title></dc:title>
      </cc:Work>
    </rdf:RDF>
  </metadata>
  <defs
     id="defs4517" />
  <sodipodi:namedview
     pagecolor="#ffffff"
     bordercolor="#666666"
     borderopacity="1"
     objecttolerance="10"
     gridtolerance="10"
     guidetolerance="10"
     inkscape:pageopacity="0"
     inkscape:pageshadow="2"
     inkscape:window-width="1920"
     inkscape:window-height="1017"
     id="namedview4515"
     showgrid="false"
     inkscape:zoom="3.776"
     inkscape:cx="54.544576"
     inkscape:cy="55.382881"
     inkscape:window-x="-8"
     inkscape:window-y="-8"
     inkscape:window-maximized="1"
     inkscape:current-layer="svg4513" />
  <path
     d="M 3.5932829,14.296642 V 10.951843 Q 3.6888489,9.1360938 5.0267699,7.8937398 6.3646867,6.6513853 8.1804369,6.6513853 H 12.767591 V 5.1223342 q 0,-1.9113142 1.337921,-3.249234 1.337917,-1.33791991 3.249233,-1.33791991 h 15.290511 q 1.911314,0 3.249234,1.33791991 1.33792,1.3379198 1.33792,3.249234 v 1.5290511 h 4.587154 q 1.815748,0 3.153668,1.2423545 1.337919,1.242354 1.433485,3.0581032 v 3.344799 q 0,1.242354 -0.90785,2.150253 -0.907849,0.907898 -2.150252,0.90785 v 25.99387 q 0,2.580274 -1.767941,4.348264 -1.767941,1.76799 -4.348264,1.767941 H 12.767591 q -2.580272,0 -4.3482641,-1.767941 -1.7679917,-1.767941 -1.7679428,-4.348264 v -25.99387 q -1.242351,0 -2.1502505,-0.90785 -0.9078996,-0.90785 -0.9078507,-2.150253 z m 3.0581012,0 H 43.348615 V 11.23854 q 0,-0.66896 -0.43007,-1.09903 -0.43007,-0.4300707 -1.09903,-0.4300707 H 8.180388 q -0.6689606,0 -1.0990312,0.4300707 -0.4300705,0.43007 -0.4300705,1.09903 v 3.058102 z m 3.0581055,29.051973 q 0,1.242354 0.9078464,2.150253 0.907851,0.907898 2.150255,0.90785 H 37.23241 q 1.242354,0 2.150253,-0.90785 0.907898,-0.90785 0.907849,-2.150253 V 17.354745 H 9.7094896 Z M 12.767591,41.819564 V 21.941898 q 0,-0.66896 0.43007,-1.09903 0.430071,-0.43007 1.099032,-0.43007 h 3.058101 q 0.66896,0 1.099031,0.43007 0.430066,0.43007 0.430066,1.09903 v 19.877666 q 0,0.66896 -0.430066,1.09903 -0.430071,0.43007 -1.099031,0.43007 h -3.058101 q -0.668961,0 -1.099032,-0.43007 -0.43007,-0.43007 -0.43007,-1.09903 z m 1.529053,0 h 3.058101 V 21.941898 H 14.296644 Z M 15.825692,6.6513853 H 34.174307 V 5.1223342 q 0,-0.6689601 -0.43007,-1.0990302 -0.43007,-0.4300701 -1.09903,-0.4300701 H 17.354696 q -0.668961,0 -1.099031,0.4300701 -0.430071,0.4300701 -0.430071,1.0990302 V 6.6513853 Z M 21.941899,41.819564 V 21.941898 q 0,-0.66896 0.43007,-1.09903 0.430071,-0.43007 1.099029,-0.43007 H 26.5291 q 0.66896,0 1.09903,0.43007 0.430071,0.43007 0.430071,1.09903 v 19.877666 q 0,0.66896 -0.430071,1.09903 -0.43007,0.43007 -1.09903,0.43007 h -3.058102 q -0.668958,0 -1.099029,-0.43007 -0.43007,-0.43007 -0.43007,-1.09903 z m 1.52905,0 h 3.058102 V 21.941898 h -3.058102 z m 7.645256,0 V 21.941898 q 0,-0.66896 0.43007,-1.09903 0.43007,-0.43007 1.09903,-0.43007 h 3.058103 q 0.668959,0 1.099029,0.43007 0.430071,0.43007 0.430071,1.09903 v 19.877666 q 0,0.66896 -0.430071,1.09903 -0.43007,0.43007 -1.099029,0.43007 h -3.058103 q -0.66896,0 -1.09903,-0.43007 -0.43007,-0.43007 -0.43007,-1.09903 z m 1.529051,0 h 3.058103 V 21.941898 h -3.058103 z"
     id="path4511"
     inkscape:connector-curvature="0"
     style="stroke-width:0.04893277" />
</svg>
