<?xml version="1.0" encoding="UTF-8" standalone="no"?>
<!-- Created with Inkscape (http://www.inkscape.org/) -->

<svg
   xmlns:dc="http://purl.org/dc/elements/1.1/"
   xmlns:cc="http://creativecommons.org/ns#"
   xmlns:rdf="http://www.w3.org/1999/02/22-rdf-syntax-ns#"
   xmlns:svg="http://www.w3.org/2000/svg"
   xmlns="http://www.w3.org/2000/svg"
   xmlns:sodipodi="http://sodipodi.sourceforge.net/DTD/sodipodi-0.dtd"
   xmlns:inkscape="http://www.inkscape.org/namespaces/inkscape"
   width="21.114471mm"
   height="23.305687mm"
   viewBox="0 0 21.114472 23.305687"
   version="1.1"
   id="svg8"
   inkscape:version="0.92.2 (5c3e80d, 2017-08-06)"
   sodipodi:docname="icon_date.svg">
  <defs
     id="defs2" />
  <sodipodi:namedview
     id="base"
     pagecolor="#ffffff"
     bordercolor="#666666"
     borderopacity="1.0"
     inkscape:pageopacity="0.0"
     inkscape:pageshadow="2"
     inkscape:zoom="2.8"
     inkscape:cx="1.8830898"
     inkscape:cy="41.589531"
     inkscape:document-units="mm"
     inkscape:current-layer="layer1"
     showgrid="false"
     fit-margin-top="0"
     fit-margin-left="0"
     fit-margin-right="0"
     fit-margin-bottom="0"
     inkscape:window-width="1920"
     inkscape:window-height="1017"
     inkscape:window-x="-8"
     inkscape:window-y="-8"
     inkscape:window-maximized="1"
     inkscape:snap-global="false" />
  <metadata
     id="metadata5">
    <rdf:RDF>
      <cc:Work
         rdf:about="">
        <dc:format>image/svg+xml</dc:format>
        <dc:type
           rdf:resource="http://purl.org/dc/dcmitype/StillImage" />
        <dc:title></dc:title>
      </cc:Work>
    </rdf:RDF>
  </metadata>
  <g
     inkscape:label="Calque 1"
     inkscape:groupmode="layer"
     id="layer1"
     transform="translate(-132.6531,-103.18176)">
    <path
       style="opacity:1;vector-effect:none;fill:#000000;fill-opacity:1;fill-rule:nonzero;stroke:none;stroke-width:3.2692914;stroke-linecap:round;stroke-linejoin:round;stroke-miterlimit:4;stroke-dasharray:none;stroke-dashoffset:0;stroke-opacity:1"
       d="M 6.0605469 8.28125 C 2.7028069 8.28125 0 10.984047 0 14.341797 L 0 82.023438 C 0 85.381187 2.7028069 88.083984 6.0605469 88.083984 L 73.742188 88.083984 C 77.099937 88.083984 79.802734 85.381187 79.802734 82.023438 L 79.802734 14.341797 C 79.802734 10.984047 77.099937 8.28125 73.742188 8.28125 L 67.910156 8.28125 L 67.910156 15.818359 C 67.956756 18.544419 66.888951 20.85692 65.238281 22.34375 C 63.587611 23.83058 61.453306 24.529297 59.347656 24.529297 C 57.242006 24.529257 55.107661 23.83058 53.457031 22.34375 C 51.806361 20.85692 50.738666 18.544419 50.785156 15.818359 L 50.785156 8.28125 L 27.753906 8.28125 L 27.753906 15.818359 C 27.800506 18.544419 26.730748 20.85692 25.080078 22.34375 C 23.429408 23.83058 21.295103 24.529297 19.189453 24.529297 C 17.083803 24.529257 14.949468 23.83058 13.298828 22.34375 C 11.648158 20.85692 10.580463 18.544419 10.626953 15.818359 L 10.626953 8.28125 L 6.0605469 8.28125 z M 14.658203 8.28125 L 14.658203 15.855469 A 2.0127998 2.0127998 0 0 1 14.658203 15.894531 C 14.628903 17.608891 15.179911 18.622089 15.994141 19.355469 C 16.808361 20.088889 17.983293 20.507812 19.189453 20.507812 C 20.395613 20.507812 21.572499 20.088889 22.386719 19.355469 C 23.200949 18.622089 23.752896 17.608891 23.722656 15.894531 A 2.0127998 2.0127998 0 0 1 23.722656 15.855469 L 23.722656 8.28125 L 14.658203 8.28125 z M 54.814453 8.28125 L 54.814453 15.855469 A 2.0127998 2.0127998 0 0 1 54.814453 15.894531 C 54.785153 17.608891 55.336161 18.622089 56.150391 19.355469 C 56.964611 20.088889 58.141496 20.507812 59.347656 20.507812 C 60.553816 20.507812 61.728749 20.088889 62.542969 19.355469 C 63.357199 18.622089 63.911099 17.608891 63.880859 15.894531 A 2.0127998 2.0127998 0 0 1 63.880859 15.855469 L 63.880859 8.28125 L 54.814453 8.28125 z M 9.6601562 29.748047 L 70.142578 29.748047 C 72.101259 29.748047 73.677734 31.324522 73.677734 33.283203 L 73.677734 78.109375 C 73.677734 80.068056 72.101259 81.644531 70.142578 81.644531 L 9.6601562 81.644531 C 7.7014753 81.644531 6.125 80.068056 6.125 78.109375 L 6.125 33.283203 C 6.125 31.324522 7.7014753 29.748047 9.6601562 29.748047 z "
       transform="matrix(0.26458333,0,0,0.26458333,132.6531,103.18176)"
       id="rect837" />
    <path
       style="color:#000000;font-style:normal;font-variant:normal;font-weight:normal;font-stretch:normal;font-size:medium;line-height:normal;font-family:sans-serif;font-variant-ligatures:normal;font-variant-position:normal;font-variant-caps:normal;font-variant-numeric:normal;font-variant-alternates:normal;font-feature-settings:normal;text-indent:0;text-align:start;text-decoration:none;text-decoration-line:none;text-decoration-style:solid;text-decoration-color:#000000;letter-spacing:normal;word-spacing:normal;text-transform:none;writing-mode:lr-tb;direction:ltr;text-orientation:mixed;dominant-baseline:auto;baseline-shift:baseline;text-anchor:start;white-space:normal;shape-padding:0;clip-rule:nonzero;display:inline;overflow:visible;visibility:visible;opacity:1;isolation:auto;mix-blend-mode:normal;color-interpolation:sRGB;color-interpolation-filters:linearRGB;solid-color:#000000;solid-opacity:1;vector-effect:none;fill:#000000;fill-opacity:1;fill-rule:evenodd;stroke:none;stroke-width:0.94124222;stroke-linecap:round;stroke-linejoin:round;stroke-miterlimit:4;stroke-dasharray:none;stroke-dashoffset:0;stroke-opacity:1;color-rendering:auto;image-rendering:auto;shape-rendering:auto;text-rendering:auto;enable-background:accumulate"
       d="m 137.70803,103.18192 a 1.5313287,1.5313287 0 0 0 -1.50866,1.55183 v 2.48049 a 1.5313287,1.5313287 0 1 0 3.0622,0 v -2.48049 a 1.5313287,1.5313287 0 0 0 -1.55354,-1.55183 z"
       id="path839"
       inkscape:connector-curvature="0" />
    <g
       id="g900"
       transform="translate(0.12362051,0.07637465)">
      <rect
         style="opacity:1;vector-effect:none;fill:#000000;fill-opacity:1;fill-rule:nonzero;stroke:none;stroke-width:0.78250009;stroke-linecap:round;stroke-linejoin:round;stroke-miterlimit:4;stroke-dasharray:none;stroke-dashoffset:0;stroke-opacity:1"
         id="rect861"
         width="4.775136"
         height="3.2640064"
         x="135.19231"
         y="111.86863"
         rx="1.4506712"
         ry="1.4506692" />
      <rect
         ry="1.4506692"
         rx="1.4506712"
         y="111.86863"
         x="140.72145"
         height="3.2640064"
         width="4.775136"
         id="rect863"
         style="opacity:1;vector-effect:none;fill:#000000;fill-opacity:1;fill-rule:nonzero;stroke:none;stroke-width:0.78250009;stroke-linecap:round;stroke-linejoin:round;stroke-miterlimit:4;stroke-dasharray:none;stroke-dashoffset:0;stroke-opacity:1" />
      <rect
         style="opacity:1;vector-effect:none;fill:#000000;fill-opacity:1;fill-rule:nonzero;stroke:none;stroke-width:0.78250009;stroke-linecap:round;stroke-linejoin:round;stroke-miterlimit:4;stroke-dasharray:none;stroke-dashoffset:0;stroke-opacity:1"
         id="rect865"
         width="4.775136"
         height="3.2640064"
         x="146.20609"
         y="111.86863"
         rx="1.4506712"
         ry="1.4506692" />
      <rect
         ry="1.4506692"
         rx="1.4506712"
         y="120.55064"
         x="135.19231"
         height="3.2640064"
         width="4.775136"
         id="rect867"
         style="opacity:1;vector-effect:none;fill:#000000;fill-opacity:1;fill-rule:nonzero;stroke:none;stroke-width:0.78250009;stroke-linecap:round;stroke-linejoin:round;stroke-miterlimit:4;stroke-dasharray:none;stroke-dashoffset:0;stroke-opacity:1" />
      <rect
         style="opacity:1;vector-effect:none;fill:#000000;fill-opacity:1;fill-rule:nonzero;stroke:none;stroke-width:0.78250009;stroke-linecap:round;stroke-linejoin:round;stroke-miterlimit:4;stroke-dasharray:none;stroke-dashoffset:0;stroke-opacity:1"
         id="rect869"
         width="4.775136"
         height="3.2640064"
         x="140.72145"
         y="120.55064"
         rx="1.4506712"
         ry="1.4506692" />
      <rect
         ry="1.4506692"
         rx="1.4506712"
         y="120.55064"
         x="146.20609"
         height="3.2640064"
         width="4.775136"
         id="rect871"
         style="opacity:1;vector-effect:none;fill:#000000;fill-opacity:1;fill-rule:nonzero;stroke:none;stroke-width:0.78250009;stroke-linecap:round;stroke-linejoin:round;stroke-miterlimit:4;stroke-dasharray:none;stroke-dashoffset:0;stroke-opacity:1" />
      <rect
         style="opacity:1;vector-effect:none;fill:#000000;fill-opacity:1;fill-rule:nonzero;stroke:none;stroke-width:0.78250009;stroke-linecap:round;stroke-linejoin:round;stroke-miterlimit:4;stroke-dasharray:none;stroke-dashoffset:0;stroke-opacity:1"
         id="rect873"
         width="4.775136"
         height="3.2640064"
         x="135.19231"
         y="116.20963"
         rx="1.4506712"
         ry="1.4506692" />
      <rect
         ry="1.4506692"
         rx="1.4506712"
         y="116.20963"
         x="140.72145"
         height="3.2640064"
         width="4.775136"
         id="rect875"
         style="opacity:1;vector-effect:none;fill:#000000;fill-opacity:1;fill-rule:nonzero;stroke:none;stroke-width:0.78250009;stroke-linecap:round;stroke-linejoin:round;stroke-miterlimit:4;stroke-dasharray:none;stroke-dashoffset:0;stroke-opacity:1" />
      <rect
         style="opacity:1;vector-effect:none;fill:#000000;fill-opacity:1;fill-rule:nonzero;stroke:none;stroke-width:0.78250009;stroke-linecap:round;stroke-linejoin:round;stroke-miterlimit:4;stroke-dasharray:none;stroke-dashoffset:0;stroke-opacity:1"
         id="rect877"
         width="4.775136"
         height="3.2640064"
         x="146.20609"
         y="116.20963"
         rx="1.4506712"
         ry="1.4506692" />
    </g>
    <path
       inkscape:connector-curvature="0"
       id="path904"
       d="m 148.33303,103.18192 a 1.5313287,1.5313287 0 0 0 -1.50866,1.55183 v 2.48049 a 1.5313287,1.5313287 0 1 0 3.0622,0 v -2.48049 a 1.5313287,1.5313287 0 0 0 -1.55354,-1.55183 z"
       style="color:#000000;font-style:normal;font-variant:normal;font-weight:normal;font-stretch:normal;font-size:medium;line-height:normal;font-family:sans-serif;font-variant-ligatures:normal;font-variant-position:normal;font-variant-caps:normal;font-variant-numeric:normal;font-variant-alternates:normal;font-feature-settings:normal;text-indent:0;text-align:start;text-decoration:none;text-decoration-line:none;text-decoration-style:solid;text-decoration-color:#000000;letter-spacing:normal;word-spacing:normal;text-transform:none;writing-mode:lr-tb;direction:ltr;text-orientation:mixed;dominant-baseline:auto;baseline-shift:baseline;text-anchor:start;white-space:normal;shape-padding:0;clip-rule:nonzero;display:inline;overflow:visible;visibility:visible;opacity:1;isolation:auto;mix-blend-mode:normal;color-interpolation:sRGB;color-interpolation-filters:linearRGB;solid-color:#000000;solid-opacity:1;vector-effect:none;fill:#000000;fill-opacity:1;fill-rule:evenodd;stroke:none;stroke-width:0.94124222;stroke-linecap:round;stroke-linejoin:round;stroke-miterlimit:4;stroke-dasharray:none;stroke-dashoffset:0;stroke-opacity:1;color-rendering:auto;image-rendering:auto;shape-rendering:auto;text-rendering:auto;enable-background:accumulate" />
  </g>
</svg>
